<svg id="SvgjsSvg1006" width="2265.316635131836" height="720.8833618164062" xmlns="http://www.w3.org/2000/svg" version="1.1" xmlns:xlink="http://www.w3.org/1999/xlink" xmlns:svgjs="http://svgjs.com/svgjs"><defs id="SvgjsDefs1007"></defs><g id="SvgjsG1008" transform="translate(801.8333435058594,467.36164369884125)"><path id="SvgjsPath1009" d="M 0 4Q 0 0 4 0L 60.80000305175781 0Q 64.80000305175781 0 64.80000305175781 4L 64.80000305175781 112.68836698231121Q 64.80000305175781 116.68836698231121 60.80000305175781 116.68836698231121L 4 116.68836698231121Q 0 116.68836698231121 0 112.68836698231121Z" stroke="rgba(0,0,0,1)" stroke-width="3" fill-opacity="1" fill="#ff686b"></path><g id="SvgjsG1010"><text id="SvgjsText1011" font-family="微软雅黑" text-anchor="middle" font-size="16px" width="45px" fill="#ffffff" font-weight="700" align="middle" lineHeight="125%" anchor="middle" family="微软雅黑" size="16px" weight="700" font-style="" opacity="1" y="34.344183491155604" transform="rotate(0)"><tspan id="SvgjsTspan1012" dy="20" x="32.5"><tspan id="SvgjsTspan1013" style="text-decoration:;">引导</tspan></tspan><tspan id="SvgjsTspan1014" dy="20" x="32.5"><tspan id="SvgjsTspan1015" style="text-decoration:;">代码</tspan></tspan></text></g></g><g id="SvgjsG1016" transform="translate(25,25.008338928222685)"><path id="SvgjsPath1017" d="M 0 4Q 0 0 4 0L 103 0Q 107 0 107 4L 107 65Q 107 69 103 69L 4 69Q 0 69 0 65Z" stroke="rgba(33,33,33,1)" stroke-width="3" fill-opacity="1" fill="#ffc773"></path><g id="SvgjsG1018"><text id="SvgjsText1019" font-family="微软雅黑" text-anchor="middle" font-size="17px" width="87px" fill="#ffffff" font-weight="700" align="middle" lineHeight="125%" anchor="middle" family="微软雅黑" size="17px" weight="700" font-style="" opacity="1" y="19.875" transform="rotate(0)"><tspan id="SvgjsTspan1020" dy="21" x="53.5"><tspan id="SvgjsTspan1021" style="text-decoration:;font-weight: bold;">HELLO</tspan></tspan></text></g></g><g id="SvgjsG1022" transform="translate(1001.9333038330078,333.23169951288406)"><path id="SvgjsPath1023" d="M 0 4Q 0 0 4 0L 522.0166931152344 0Q 526.0166931152344 0 526.0166931152344 4L 526.0166931152344 115.29166412353516Q 526.0166931152344 119.29166412353516 522.0166931152344 119.29166412353516L 4 119.29166412353516Q 0 119.29166412353516 0 115.29166412353516Z" stroke="rgba(0,0,0,1)" stroke-width="3" fill-opacity="1" fill="#ffb84d"></path><g id="SvgjsG1024"><text id="SvgjsText1025" font-family="微软雅黑" text-anchor="middle" font-size="16px" width="507px" fill="#ffffff" font-weight="700" align="middle" lineHeight="125%" anchor="middle" family="微软雅黑" size="16px" weight="700" font-style="" opacity="1" y="45.64583206176758" transform="rotate(0)"><tspan id="SvgjsTspan1026" dy="20" x="263.5"><tspan id="SvgjsTspan1027" style="text-decoration:;">分区1 (XFS Linux)</tspan></tspan></text></g></g><g id="SvgjsG1028" transform="translate(801.8333435058594,334.5333480834961)"><path id="SvgjsPath1029" d="M 0 4Q 0 0 4 0L 60.80000305175781 0Q 64.80000305175781 0 64.80000305175781 4L 64.80000305175781 112.6883669823111Q 64.80000305175781 116.6883669823111 60.80000305175781 116.6883669823111L 4 116.6883669823111Q 0 116.6883669823111 0 112.6883669823111Z" stroke="rgba(0,0,0,1)" stroke-width="3" fill-opacity="1" fill="#ff686b"></path><g id="SvgjsG1030"><text id="SvgjsText1031" font-family="微软雅黑" text-anchor="middle" font-size="16px" width="45px" fill="#ffffff" font-weight="700" align="middle" lineHeight="125%" anchor="middle" family="微软雅黑" size="16px" weight="700" font-style="" opacity="1" y="34.34418349115555" transform="rotate(0)"><tspan id="SvgjsTspan1032" dy="20" x="32.5"><tspan id="SvgjsTspan1033" style="text-decoration:;">引导</tspan></tspan><tspan id="SvgjsTspan1034" dy="20" x="32.5"><tspan id="SvgjsTspan1035" style="text-decoration:;">代码</tspan></tspan></text></g></g><g id="SvgjsG1036" transform="translate(887,334.5333480834961)"><path id="SvgjsPath1037" d="M 0 4Q 0 0 4 0L 90.566650390625 0Q 94.566650390625 0 94.566650390625 4L 94.566650390625 112.68836698231112Q 94.566650390625 116.68836698231112 90.566650390625 116.68836698231112L 4 116.68836698231112Q 0 116.68836698231112 0 112.68836698231112Z" stroke="rgba(0,0,0,1)" stroke-width="3" fill-opacity="1" fill="#6d6875"></path><g id="SvgjsG1038"><text id="SvgjsText1039" font-family="微软雅黑" text-anchor="middle" font-size="15px" width="75px" fill="#ffffff" font-weight="700" align="middle" lineHeight="125%" anchor="middle" family="微软雅黑" size="15px" weight="700" font-style="" opacity="1" y="27.46918349115556" transform="rotate(0)"><tspan id="SvgjsTspan1040" dy="18" x="47.5"><tspan id="SvgjsTspan1041" style="text-decoration:;">MBR</tspan></tspan><tspan id="SvgjsTspan1042" dy="18" x="47.5"><tspan id="SvgjsTspan1043" style="text-decoration:;">分区信息</tspan></tspan><tspan id="SvgjsTspan1044" dy="18" x="47.5"><tspan id="SvgjsTspan1045" style="text-decoration:;">【4 分区】</tspan></tspan></text></g></g><g id="SvgjsG1046" transform="translate(1001.9333038330078,466.0599951282293)"><path id="SvgjsPath1047" d="M 0 4Q 0 0 4 0L 187.6333465576172 0Q 191.6333465576172 0 191.6333465576172 4L 191.6333465576172 115.29166412353516Q 191.6333465576172 119.29166412353516 187.6333465576172 119.29166412353516L 4 119.29166412353516Q 0 119.29166412353516 0 115.29166412353516Z" stroke="rgba(0,0,0,1)" stroke-width="3" fill-opacity="1" fill="#6d6875"></path><g id="SvgjsG1048"><text id="SvgjsText1049" font-family="微软雅黑" text-anchor="middle" font-size="15px" width="172px" fill="#ffffff" font-weight="700" align="middle" lineHeight="125%" anchor="middle" family="微软雅黑" size="15px" weight="700" font-style="" opacity="1" y="37.77083206176758" transform="rotate(0)"><tspan id="SvgjsTspan1050" dy="18" x="96"><tspan id="SvgjsTspan1051" style="text-decoration:;">GPT 分区信息</tspan></tspan><tspan id="SvgjsTspan1052" dy="18" x="96"><tspan id="SvgjsTspan1053" style="text-decoration:;">【可容纳128 分区】</tspan></tspan></text></g></g><g id="SvgjsG1054" transform="translate(887,467.36164369884125)"><path id="SvgjsPath1055" d="M 0 4Q 0 0 4 0L 90.566650390625 0Q 94.566650390625 0 94.566650390625 4L 94.566650390625 112.68836698231112Q 94.566650390625 116.68836698231112 90.566650390625 116.68836698231112L 4 116.68836698231112Q 0 116.68836698231112 0 112.68836698231112Z" stroke="rgba(0,0,0,1)" stroke-width="3" fill-opacity="1" fill="#6d6875"></path><g id="SvgjsG1056"><text id="SvgjsText1057" font-family="微软雅黑" text-anchor="middle" font-size="15px" width="75px" fill="#ffffff" font-weight="700" align="middle" lineHeight="125%" anchor="middle" family="微软雅黑" size="15px" weight="700" font-style="" opacity="1" y="27.46918349115556" transform="rotate(0)"><tspan id="SvgjsTspan1058" dy="18" x="47.5"><tspan id="SvgjsTspan1059" style="text-decoration:;">MBR</tspan></tspan><tspan id="SvgjsTspan1060" dy="18" x="47.5"><tspan id="SvgjsTspan1061" style="text-decoration:;">分区信息</tspan></tspan><tspan id="SvgjsTspan1062" dy="18" x="47.5"><tspan id="SvgjsTspan1063" style="text-decoration:;">【废弃】</tspan></tspan></text></g></g><g id="SvgjsG1064" transform="translate(1548.316650390625,333.23169951288406)"><path id="SvgjsPath1065" d="M 0 4Q 0 0 4 0L 687.5 0Q 691.5 0 691.5 4L 691.5 115.29166412353516Q 691.5 119.29166412353516 687.5 119.29166412353516L 4 119.29166412353516Q 0 119.29166412353516 0 115.29166412353516Z" stroke="rgba(0,0,0,1)" stroke-width="3" fill-opacity="1" fill="#ffb84d"></path><g id="SvgjsG1066"><text id="SvgjsText1067" font-family="微软雅黑" text-anchor="middle" font-size="16px" width="672px" fill="#ffffff" font-weight="700" align="middle" lineHeight="125%" anchor="middle" family="微软雅黑" size="16px" weight="700" font-style="" opacity="1" y="45.64583206176758" transform="rotate(0)"><tspan id="SvgjsTspan1068" dy="20" x="346"><tspan id="SvgjsTspan1069" style="text-decoration:;">分区2 (NTFS Windows)</tspan></tspan></text></g></g><g id="SvgjsG1070" transform="translate(1213.9333038330078,466.0599951282293)"><path id="SvgjsPath1071" d="M 0 4Q 0 0 4 0L 310.0166931152344 0Q 314.0166931152344 0 314.0166931152344 4L 314.0166931152344 115.29166412353516Q 314.0166931152344 119.29166412353516 310.0166931152344 119.29166412353516L 4 119.29166412353516Q 0 119.29166412353516 0 115.29166412353516Z" stroke="rgba(0,0,0,1)" stroke-width="3" fill-opacity="1" fill="#ffb84d"></path><g id="SvgjsG1072"><text id="SvgjsText1073" font-family="微软雅黑" text-anchor="middle" font-size="16px" width="295px" fill="#ffffff" font-weight="700" align="middle" lineHeight="125%" anchor="middle" family="微软雅黑" size="16px" weight="700" font-style="" opacity="1" y="45.64583206176758" transform="rotate(0)"><tspan id="SvgjsTspan1074" dy="20" x="157.5"><tspan id="SvgjsTspan1075" style="text-decoration:;">分区1 (XFS Linux)</tspan></tspan></text></g></g><g id="SvgjsG1076" transform="translate(1548.316650390625,467.36164369884125)"><path id="SvgjsPath1077" d="M 0 4Q 0 0 4 0L 602.25 0Q 606.25 0 606.25 4L 606.25 112.68836698231121Q 606.25 116.68836698231121 602.25 116.68836698231121L 4 116.68836698231121Q 0 116.68836698231121 0 112.68836698231121Z" stroke="rgba(0,0,0,1)" stroke-width="3" fill-opacity="1" fill="#ffb84d"></path><g id="SvgjsG1078"><text id="SvgjsText1079" font-family="微软雅黑" text-anchor="middle" font-size="16px" width="587px" fill="#ffffff" font-weight="700" align="middle" lineHeight="125%" anchor="middle" family="微软雅黑" size="16px" weight="700" font-style="" opacity="1" y="44.344183491155604" transform="rotate(0)"><tspan id="SvgjsTspan1080" dy="20" x="303.5"><tspan id="SvgjsTspan1081" style="text-decoration:;">分区2 (NTFS Windows)</tspan></tspan></text></g></g><g id="SvgjsG1082" transform="translate(2174.933303833008,467.36164369884125)"><path id="SvgjsPath1083" d="M 0 4Q 0 0 4 0L 60.88334655761719 0Q 64.88334655761719 0 64.88334655761719 4L 64.88334655761719 112.68836698231121Q 64.88334655761719 116.68836698231121 60.88334655761719 116.68836698231121L 4 116.68836698231121Q 0 116.68836698231121 0 112.68836698231121Z" stroke="rgba(0,0,0,1)" stroke-width="3" fill-opacity="1" fill="#6d6875"></path><g id="SvgjsG1084"><text id="SvgjsText1085" font-family="微软雅黑" text-anchor="middle" font-size="14px" width="45px" fill="#ffffff" font-weight="700" align="middle" lineHeight="125%" anchor="middle" family="微软雅黑" size="14px" weight="700" font-style="" opacity="1" y="29.094183491155604" transform="rotate(0)"><tspan id="SvgjsTspan1086" dy="17" x="32.5"><tspan id="SvgjsTspan1087" style="text-decoration:;">GPT</tspan></tspan><tspan id="SvgjsTspan1088" dy="17" x="32.5"><tspan id="SvgjsTspan1089" style="text-decoration:;">元信息</tspan></tspan><tspan id="SvgjsTspan1090" dy="17" x="32.5"><tspan id="SvgjsTspan1091" style="text-decoration:;">备份</tspan></tspan></text></g></g><g id="SvgjsG1092" transform="matrix(6.123234262925839e-17,1,-1,6.123234262925839e-17,976.0999755859375,598.8833618164062)"><path id="SvgjsPath1093" d="M 0 174.81666564941406Q 9 174.81666564941406 9 165.81666564941406L 9 96.40833282470703Q 9 87.40833282470703 22 87.40833282470703Q 9 87.40833282470703 9 78.40833282470703L 9 9Q 9 0 0 0" stroke="rgba(50,50,50,1)" stroke-width="2" fill="none"></path><path id="SvgjsPath1094" d="M 0 0L 96.59999084472656 0L 96.59999084472656 174.81666564941406L 0 174.81666564941406Z" stroke="none" fill="none"></path><g id="SvgjsG1095"><text id="SvgjsText1096" font-family="微软雅黑" text-anchor="start" font-size="13px" width="70px" fill="#323232" font-weight="400" align="middle" lineHeight="125%" anchor="start" family="微软雅黑" size="13px" weight="400" font-style="" opacity="1" y="76.78333282470703" transform="rotate(0)"><tspan id="SvgjsTspan1097" dy="16" x="27"><tspan id="SvgjsTspan1098" style="text-decoration:;"> </tspan></tspan></text></g></g><g id="SvgjsG1099" transform="translate(831.0999908447266,626.893762588501)"><path id="SvgjsPath1100" d="M 0 0L 120 0L 120 40L 0 40Z" stroke="none" fill="none"></path><g id="SvgjsG1101"><text id="SvgjsText1102" font-family="微软雅黑" text-anchor="middle" font-size="13px" width="120px" fill="#323232" font-weight="400" align="middle" lineHeight="125%" anchor="middle" family="微软雅黑" size="13px" weight="400" font-style="" opacity="1" y="9.375" transform="rotate(0)"><tspan id="SvgjsTspan1103" dy="16" x="60"><tspan id="SvgjsTspan1104" style="text-decoration:;font-weight: bold;">Protective MBR</tspan></tspan></text></g></g><g id="SvgjsG1105" transform="translate(664.2833251953125,499.5670720838234)"><path id="SvgjsPath1106" d="M 0 0L 137 0L 137 52.2775102123469L 0 52.2775102123469Z" stroke="none" fill="none"></path><g id="SvgjsG1107"><text id="SvgjsText1108" font-family="微软雅黑" text-anchor="middle" font-size="32px" width="137px" fill="#323232" font-weight="700" align="middle" lineHeight="125%" anchor="middle" family="微软雅黑" size="32px" weight="700" font-style="" opacity="1" y="-1.8612448938265516" transform="rotate(0)"><tspan id="SvgjsTspan1109" dy="40" x="68.5"><tspan id="SvgjsTspan1110" style="text-decoration:;">GPT</tspan></tspan></text></g></g><g id="SvgjsG1111" transform="translate(664.8333435058594,370.7862555749789)"><path id="SvgjsPath1112" d="M 0 0L 137 0L 137 52.2775102123469L 0 52.2775102123469Z" stroke="none" fill="none"></path><g id="SvgjsG1113"><text id="SvgjsText1114" font-family="微软雅黑" text-anchor="middle" font-size="32px" width="137px" fill="#323232" font-weight="700" align="middle" lineHeight="125%" anchor="middle" family="微软雅黑" size="32px" weight="700" font-style="" opacity="1" y="-1.8612448938265516" transform="rotate(0)"><tspan id="SvgjsTspan1115" dy="40" x="68.5"><tspan id="SvgjsTspan1116" style="text-decoration:;">MBR</tspan></tspan></text></g></g></svg>