<svg id="SvgjsSvg1006" width="800" height="417.16668701171875" xmlns="http://www.w3.org/2000/svg" version="1.1" xmlns:xlink="http://www.w3.org/1999/xlink" xmlns:svgjs="http://svgjs.com/svgjs"><defs id="SvgjsDefs1007"></defs><g id="SvgjsG1008" transform="translate(25,25.000015258789062)"><path id="SvgjsPath1009" d="M 0 0L 734 0L 734 203L 0 203Z" stroke-dasharray="10,6" stroke="rgba(50,50,50,0.3)" stroke-width="2" fill-opacity="0.3" fill="#e5e5e5"></path><g id="SvgjsG1010"><text id="SvgjsText1011" font-family="Impact" text-anchor="middle" font-size="30px" width="714px" fill="#f5f5f5" font-weight="400" align="middle" lineHeight="125%" anchor="middle" family="Impact" size="30px" weight="400" font-style="" opacity="0.3" y="75.75" transform="rotate(0)"><tspan id="SvgjsTspan1012" dy="37" x="367"><tspan id="SvgjsTspan1013" style="text-decoration:;"> </tspan></tspan></text></g></g><g id="SvgjsG1014" transform="translate(512,62.33335876464844)"><path id="SvgjsPath1015" d="M 0 0L 229 0L 229 54.666656494140625L 0 54.666656494140625Z" stroke-dasharray="10,6" stroke="rgba(50,50,50,0.3)" stroke-width="2" fill-opacity="0.3" fill="#e5e5e5"></path><g id="SvgjsG1016"><text id="SvgjsText1017" font-family="Impact" text-anchor="middle" font-size="30px" width="209px" fill="#f5f5f5" font-weight="400" align="middle" lineHeight="125%" anchor="middle" family="Impact" size="30px" weight="400" font-style="" opacity="0.3" y="1.5833282470703125" transform="rotate(0)"><tspan id="SvgjsTspan1018" dy="37" x="114.5"><tspan id="SvgjsTspan1019" style="text-decoration:;"> </tspan></tspan></text></g></g><g id="SvgjsG1020" transform="translate(144,68.16668701171875)"><path id="SvgjsPath1021" d="M 0 4Q 0 0 4 0L 361 0Q 365 0 365 4L 365 39Q 365 43 361 43L 4 43Q 0 43 0 39Z" stroke="rgba(255,255,255,1)" stroke-width="2" fill-opacity="1" fill="#6d6875"></path><g id="SvgjsG1022"><text id="SvgjsText1023" font-family="微软雅黑" text-anchor="middle" font-size="15px" width="345px" fill="#ffffff" font-weight="700" align="middle" lineHeight="125%" anchor="middle" family="微软雅黑" size="15px" weight="700" font-style="" opacity="1" y="9.125" transform="rotate(0)"><tspan id="SvgjsTspan1024" dy="18" x="182.5"><tspan id="SvgjsTspan1025" style="text-decoration:;">node_processes{instance=10.1.1.1,jobe=node}</tspan></tspan></text></g></g><g id="SvgjsG1026" transform="translate(673.5,67.16668701171875)"><path id="SvgjsPath1027" d="M 0 4Q 0 0 4 0L 51.5 0Q 55.5 0 55.5 4L 55.5 41Q 55.5 45 51.5 45L 4 45Q 0 45 0 41Z" stroke="rgba(255,255,255,1)" stroke-width="2" fill-opacity="1" fill="#ff686b"></path><g id="SvgjsG1028"><text id="SvgjsText1029" font-family="微软雅黑" text-anchor="middle" font-size="17px" width="36px" fill="#ffffff" font-weight="700" align="middle" lineHeight="125%" anchor="middle" family="微软雅黑" size="17px" weight="700" font-style="" opacity="1" y="7.875" transform="rotate(0)"><tspan id="SvgjsTspan1030" dy="21" x="28"><tspan id="SvgjsTspan1031" style="text-decoration:;">30</tspan></tspan></text></g></g><g id="SvgjsG1032" transform="translate(515,67.16668701171875)"><path id="SvgjsPath1033" d="M 0 4Q 0 0 4 0L 148.5 0Q 152.5 0 152.5 4L 152.5 41Q 152.5 45 148.5 45L 4 45Q 0 45 0 41Z" stroke="rgba(255,255,255,1)" stroke-width="2" fill-opacity="1" fill="#ffc773"></path><g id="SvgjsG1034"><text id="SvgjsText1035" font-family="微软雅黑" text-anchor="middle" font-size="15px" width="133px" fill="#ffffff" font-weight="700" align="middle" lineHeight="125%" anchor="middle" family="微软雅黑" size="15px" weight="700" font-style="" opacity="1" y="10.125" transform="rotate(0)"><tspan id="SvgjsTspan1036" dy="18" x="76.5"><tspan id="SvgjsTspan1037" style="text-decoration:;">1648800540000</tspan></tspan></text></g></g><g id="SvgjsG1038" transform="translate(673.5,123.16668701171875)"><path id="SvgjsPath1039" d="M 0 4Q 0 0 4 0L 51.5 0Q 55.5 0 55.5 4L 55.5 41Q 55.5 45 51.5 45L 4 45Q 0 45 0 41Z" stroke="rgba(255,255,255,1)" stroke-width="2" fill-opacity="1" fill="#ff686b"></path><g id="SvgjsG1040"><text id="SvgjsText1041" font-family="微软雅黑" text-anchor="middle" font-size="17px" width="36px" fill="#ffffff" font-weight="700" align="middle" lineHeight="125%" anchor="middle" family="微软雅黑" size="17px" weight="700" font-style="" opacity="1" y="7.875" transform="rotate(0)"><tspan id="SvgjsTspan1042" dy="21" x="28"><tspan id="SvgjsTspan1043" style="text-decoration:;">19</tspan></tspan></text></g></g><g id="SvgjsG1044" transform="translate(515,123.16668701171875)"><path id="SvgjsPath1045" d="M 0 4Q 0 0 4 0L 148.5 0Q 152.5 0 152.5 4L 152.5 41Q 152.5 45 148.5 45L 4 45Q 0 45 0 41Z" stroke="rgba(255,255,255,1)" stroke-width="2" fill-opacity="1" fill="#ffc773"></path><g id="SvgjsG1046"><text id="SvgjsText1047" font-family="微软雅黑" text-anchor="middle" font-size="15px" width="133px" fill="#ffffff" font-weight="700" align="middle" lineHeight="125%" anchor="middle" family="微软雅黑" size="15px" weight="700" font-style="" opacity="1" y="10.125" transform="rotate(0)"><tspan id="SvgjsTspan1048" dy="18" x="76.5"><tspan id="SvgjsTspan1049" style="text-decoration:;">1648800541000</tspan></tspan></text></g></g><g id="SvgjsG1050" transform="translate(673.5,175.16668701171875)"><path id="SvgjsPath1051" d="M 0 4Q 0 0 4 0L 51.5 0Q 55.5 0 55.5 4L 55.5 41Q 55.5 45 51.5 45L 4 45Q 0 45 0 41Z" stroke="rgba(255,255,255,1)" stroke-width="2" fill-opacity="1" fill="#ff686b"></path><g id="SvgjsG1052"><text id="SvgjsText1053" font-family="微软雅黑" text-anchor="middle" font-size="17px" width="36px" fill="#ffffff" font-weight="700" align="middle" lineHeight="125%" anchor="middle" family="微软雅黑" size="17px" weight="700" font-style="" opacity="1" y="7.875" transform="rotate(0)"><tspan id="SvgjsTspan1054" dy="21" x="28"><tspan id="SvgjsTspan1055" style="text-decoration:;">64</tspan></tspan></text></g></g><g id="SvgjsG1056" transform="translate(515,175.16668701171875)"><path id="SvgjsPath1057" d="M 0 4Q 0 0 4 0L 148.5 0Q 152.5 0 152.5 4L 152.5 41Q 152.5 45 148.5 45L 4 45Q 0 45 0 41Z" stroke="rgba(255,255,255,1)" stroke-width="2" fill-opacity="1" fill="#ffc773"></path><g id="SvgjsG1058"><text id="SvgjsText1059" font-family="微软雅黑" text-anchor="middle" font-size="15px" width="133px" fill="#ffffff" font-weight="700" align="middle" lineHeight="125%" anchor="middle" family="微软雅黑" size="15px" weight="700" font-style="" opacity="1" y="10.125" transform="rotate(0)"><tspan id="SvgjsTspan1060" dy="18" x="76.5"><tspan id="SvgjsTspan1061" style="text-decoration:;">1648800542000</tspan></tspan></text></g></g><g id="SvgjsG1062" transform="translate(144,240.16668701171875)"><path id="SvgjsPath1063" d="M 0 4Q 0 0 4 0L 361 0Q 365 0 365 4L 365 39Q 365 43 361 43L 4 43Q 0 43 0 39Z" stroke="rgba(255,255,255,1)" stroke-width="2" fill-opacity="1" fill="#6d6875"></path><g id="SvgjsG1064"><text id="SvgjsText1065" font-family="微软雅黑" text-anchor="middle" font-size="15px" width="345px" fill="#ffffff" font-weight="700" align="middle" lineHeight="125%" anchor="middle" family="微软雅黑" size="15px" weight="700" font-style="" opacity="1" y="9.125" transform="rotate(0)"><tspan id="SvgjsTspan1066" dy="18" x="182.5"><tspan id="SvgjsTspan1067" style="text-decoration:;">node_processes{instance=10.1.1.2,jobe=node}</tspan></tspan></text></g></g><g id="SvgjsG1068" transform="translate(673.5,239.16668701171875)"><path id="SvgjsPath1069" d="M 0 4Q 0 0 4 0L 51.5 0Q 55.5 0 55.5 4L 55.5 41Q 55.5 45 51.5 45L 4 45Q 0 45 0 41Z" stroke="rgba(255,255,255,1)" stroke-width="2" fill-opacity="1" fill="#ff686b"></path><g id="SvgjsG1070"><text id="SvgjsText1071" font-family="微软雅黑" text-anchor="middle" font-size="17px" width="36px" fill="#ffffff" font-weight="700" align="middle" lineHeight="125%" anchor="middle" family="微软雅黑" size="17px" weight="700" font-style="" opacity="1" y="7.875" transform="rotate(0)"><tspan id="SvgjsTspan1072" dy="21" x="28"><tspan id="SvgjsTspan1073" style="text-decoration:;">49</tspan></tspan></text></g></g><g id="SvgjsG1074" transform="translate(515,239.16668701171875)"><path id="SvgjsPath1075" d="M 0 4Q 0 0 4 0L 148.5 0Q 152.5 0 152.5 4L 152.5 41Q 152.5 45 148.5 45L 4 45Q 0 45 0 41Z" stroke="rgba(255,255,255,1)" stroke-width="2" fill-opacity="1" fill="#ffc773"></path><g id="SvgjsG1076"><text id="SvgjsText1077" font-family="微软雅黑" text-anchor="middle" font-size="15px" width="133px" fill="#ffffff" font-weight="700" align="middle" lineHeight="125%" anchor="middle" family="微软雅黑" size="15px" weight="700" font-style="" opacity="1" y="10.125" transform="rotate(0)"><tspan id="SvgjsTspan1078" dy="18" x="76.5"><tspan id="SvgjsTspan1079" style="text-decoration:;">1648800540000</tspan></tspan></text></g></g><g id="SvgjsG1080" transform="translate(673.5,295.16668701171875)"><path id="SvgjsPath1081" d="M 0 4Q 0 0 4 0L 51.5 0Q 55.5 0 55.5 4L 55.5 41Q 55.5 45 51.5 45L 4 45Q 0 45 0 41Z" stroke="rgba(255,255,255,1)" stroke-width="2" fill-opacity="1" fill="#ff686b"></path><g id="SvgjsG1082"><text id="SvgjsText1083" font-family="微软雅黑" text-anchor="middle" font-size="17px" width="36px" fill="#ffffff" font-weight="700" align="middle" lineHeight="125%" anchor="middle" family="微软雅黑" size="17px" weight="700" font-style="" opacity="1" y="7.875" transform="rotate(0)"><tspan id="SvgjsTspan1084" dy="21" x="28"><tspan id="SvgjsTspan1085" style="text-decoration:;">32</tspan></tspan></text></g></g><g id="SvgjsG1086" transform="translate(515,295.16668701171875)"><path id="SvgjsPath1087" d="M 0 4Q 0 0 4 0L 148.5 0Q 152.5 0 152.5 4L 152.5 41Q 152.5 45 148.5 45L 4 45Q 0 45 0 41Z" stroke="rgba(255,255,255,1)" stroke-width="2" fill-opacity="1" fill="#ffc773"></path><g id="SvgjsG1088"><text id="SvgjsText1089" font-family="微软雅黑" text-anchor="middle" font-size="15px" width="133px" fill="#ffffff" font-weight="700" align="middle" lineHeight="125%" anchor="middle" family="微软雅黑" size="15px" weight="700" font-style="" opacity="1" y="10.125" transform="rotate(0)"><tspan id="SvgjsTspan1090" dy="18" x="76.5"><tspan id="SvgjsTspan1091" style="text-decoration:;">1648800541000</tspan></tspan></text></g></g><g id="SvgjsG1092" transform="translate(673.5,347.16668701171875)"><path id="SvgjsPath1093" d="M 0 4Q 0 0 4 0L 51.5 0Q 55.5 0 55.5 4L 55.5 41Q 55.5 45 51.5 45L 4 45Q 0 45 0 41Z" stroke="rgba(255,255,255,1)" stroke-width="2" fill-opacity="1" fill="#ff686b"></path><g id="SvgjsG1094"><text id="SvgjsText1095" font-family="微软雅黑" text-anchor="middle" font-size="17px" width="36px" fill="#ffffff" font-weight="700" align="middle" lineHeight="125%" anchor="middle" family="微软雅黑" size="17px" weight="700" font-style="" opacity="1" y="7.875" transform="rotate(0)"><tspan id="SvgjsTspan1096" dy="21" x="28"><tspan id="SvgjsTspan1097" style="text-decoration:;">50</tspan></tspan></text></g></g><g id="SvgjsG1098" transform="translate(515,347.16668701171875)"><path id="SvgjsPath1099" d="M 0 4Q 0 0 4 0L 148.5 0Q 152.5 0 152.5 4L 152.5 41Q 152.5 45 148.5 45L 4 45Q 0 45 0 41Z" stroke="rgba(255,255,255,1)" stroke-width="2" fill-opacity="1" fill="#ffc773"></path><g id="SvgjsG1100"><text id="SvgjsText1101" font-family="微软雅黑" text-anchor="middle" font-size="15px" width="133px" fill="#ffffff" font-weight="700" align="middle" lineHeight="125%" anchor="middle" family="微软雅黑" size="15px" weight="700" font-style="" opacity="1" y="10.125" transform="rotate(0)"><tspan id="SvgjsTspan1102" dy="18" x="76.5"><tspan id="SvgjsTspan1103" style="text-decoration:;">1648800542000</tspan></tspan></text></g></g><g id="SvgjsG1104" transform="translate(51,123.16668701171875)"><path id="SvgjsPath1105" d="M 0 0L 187 0L 187 93.83332824707031L 0 93.83332824707031Z" stroke="none" fill="none"></path><g id="SvgjsG1106"><text id="SvgjsText1107" font-family="Impact" text-anchor="middle" font-size="35px" width="187px" fill="#f5f5f5" font-weight="400" align="middle" lineHeight="125%" anchor="middle" family="Impact" size="35px" weight="400" font-style="" opacity="1" y="16.541664123535156" transform="rotate(0)"><tspan id="SvgjsTspan1108" dy="43" x="93.5"><tspan id="SvgjsTspan1109" style="text-decoration:;fill: rgb(0, 0, 0);">Time Series</tspan></tspan></text></g></g><g id="SvgjsG1110" transform="translate(505,52.33335876464844)"><path id="SvgjsPath1111" d="M 0 0L 123 0L 123 20.833328247070312L 0 20.833328247070312Z" stroke="none" fill="none"></path><g id="SvgjsG1112"><text id="SvgjsText1113" font-family="Impact" text-anchor="middle" font-size="27px" width="123px" fill="#f5f5f5" font-weight="400" align="middle" lineHeight="125%" anchor="middle" family="Impact" size="27px" weight="400" font-style="" opacity="1" y="-12.958335876464844" transform="rotate(0)"><tspan id="SvgjsTspan1114" dy="33" x="61.5"><tspan id="SvgjsTspan1115" style="text-decoration:;fill: rgb(0, 0, 0);">Sample</tspan></tspan></text></g></g><g id="SvgjsG1116" transform="translate(133,58.33335876464844)"><path id="SvgjsPath1117" d="M 0 0L 123 0L 123 20.833328247070312L 0 20.833328247070312Z" stroke="none" fill="none"></path><g id="SvgjsG1118"><text id="SvgjsText1119" font-family="Impact" text-anchor="middle" font-size="27px" width="123px" fill="#f5f5f5" font-weight="400" align="middle" lineHeight="125%" anchor="middle" family="Impact" size="27px" weight="400" font-style="" opacity="1" y="-12.958335876464844" transform="rotate(0)"><tspan id="SvgjsTspan1120" dy="33" x="61.5"><tspan id="SvgjsTspan1121" style="text-decoration:;fill: rgb(0, 0, 0);">Labels</tspan></tspan></text></g></g><g id="SvgjsG1122" transform="translate(509,96.33335876464844)"><path id="SvgjsPath1123" d="M 0 0L 147 0L 147 20.833328247070312L 0 20.833328247070312Z" stroke="none" fill="none"></path><g id="SvgjsG1124"><text id="SvgjsText1125" font-family="Impact" text-anchor="middle" font-size="17px" width="147px" fill="#f5f5f5" font-weight="400" align="middle" lineHeight="125%" anchor="middle" family="Impact" size="17px" weight="400" font-style="" opacity="1" y="-4.208335876464844" transform="rotate(0)"><tspan id="SvgjsTspan1126" dy="21" x="73.5"><tspan id="SvgjsTspan1127" style="text-decoration:;fill: rgb(0, 0, 0);">Timestamp</tspan></tspan></text></g></g><g id="SvgjsG1128" transform="translate(628,97.33335876464844)"><path id="SvgjsPath1129" d="M 0 0L 147 0L 147 20.833328247070312L 0 20.833328247070312Z" stroke="none" fill="none"></path><g id="SvgjsG1130"><text id="SvgjsText1131" font-family="Impact" text-anchor="middle" font-size="17px" width="147px" fill="#f5f5f5" font-weight="400" align="middle" lineHeight="125%" anchor="middle" family="Impact" size="17px" weight="400" font-style="" opacity="1" y="-4.208335876464844" transform="rotate(0)"><tspan id="SvgjsTspan1132" dy="21" x="73.5"><tspan id="SvgjsTspan1133" style="text-decoration:;fill: rgb(0, 0, 0);">Value</tspan></tspan></text></g></g></svg>