<svg id="SvgjsSvg1066" width="729" height="660" xmlns="http://www.w3.org/2000/svg" version="1.1" xmlns:xlink="http://www.w3.org/1999/xlink" xmlns:svgjs="http://svgjs.com/svgjs"><defs id="SvgjsDefs1067"></defs><g id="SvgjsG1068" transform="translate(73,90)"><path id="SvgjsPath1069" d="M 0 180.5C 0 -60.166666666666664 361 -60.166666666666664 361 180.5C 361 421.1666666666667 0 421.1666666666667 0 180.5Z" stroke="rgba(228,88,88,1)" stroke-width="4" fill="none"></path><g id="SvgjsG1070"><text id="SvgjsText1071" font-family="微软雅黑" text-anchor="middle" font-size="13px" width="341px" fill="#323232" font-weight="400" align="middle" lineHeight="125%" anchor="middle" family="微软雅黑" size="13px" weight="400" font-style="" opacity="1" y="169.875" transform="rotate(0)"></text></g></g><g id="SvgjsG1072" transform="translate(252,274)"><path id="SvgjsPath1073" d="M 0 180.5C 0 -60.166666666666664 361 -60.166666666666664 361 180.5C 361 421.1666666666667 0 421.1666666666667 0 180.5Z" stroke="rgba(2,195,153,1)" stroke-width="4" fill="none"></path><g id="SvgjsG1074"><text id="SvgjsText1075" font-family="微软雅黑" text-anchor="middle" font-size="39px" width="341px" fill="#323232" font-weight="400" align="middle" lineHeight="125%" anchor="middle" family="微软雅黑" size="39px" weight="400" font-style="" opacity="1" y="147.125" transform="rotate(0)"></text></g></g><g id="SvgjsG1076" transform="translate(305,25)"><path id="SvgjsPath1077" d="M 0 180.5C 0 -60.166666666666664 361 -60.166666666666664 361 180.5C 361 421.1666666666667 0 421.1666666666667 0 180.5Z" stroke="rgba(255,199,115,1)" stroke-width="4" fill="none"></path><g id="SvgjsG1078"><text id="SvgjsText1079" font-family="微软雅黑" text-anchor="middle" font-size="13px" width="341px" fill="#323232" font-weight="400" align="middle" lineHeight="125%" anchor="middle" family="微软雅黑" size="13px" weight="400" font-style="" opacity="1" y="169.875" transform="rotate(0)"></text></g></g><g id="SvgjsG1080" transform="translate(103,247.76666259765625)"><path id="SvgjsPath1081" d="M 0 0L 120 0L 120 40L 0 40Z" stroke="none" fill="none"></path><g id="SvgjsG1082"><text id="SvgjsText1083" font-family="微软雅黑" text-anchor="middle" font-size="23px" width="120px" fill="#323232" font-weight="400" align="middle" lineHeight="125%" anchor="middle" family="微软雅黑" size="23px" weight="400" font-style="" opacity="1" y="-0.375" transform="rotate(0)"></text></g></g><g id="SvgjsG1084" transform="translate(293,482.76666259765625)"><path id="SvgjsPath1085" d="M 0 0L 277 0L 277 63L 0 63Z" stroke="none" fill="none"></path><g id="SvgjsG1086"><text id="SvgjsText1087" font-family="微软雅黑" text-anchor="middle" font-size="33px" width="277px" fill="#323232" font-weight="400" align="middle" lineHeight="125%" anchor="middle" family="微软雅黑" size="33px" weight="400" font-style="" opacity="1" y="2.875" transform="rotate(0)"><tspan id="SvgjsTspan1088" dy="41" x="138.5"><tspan id="SvgjsTspan1089" style="text-decoration:;font-weight: bold;">Performance</tspan></tspan></text></g></g><g id="SvgjsG1090" transform="translate(25,233.76666259765625)"><path id="SvgjsPath1091" d="M 0 0L 277 0L 277 63L 0 63Z" stroke="none" fill="none"></path><g id="SvgjsG1092"><text id="SvgjsText1093" font-family="微软雅黑" text-anchor="middle" font-size="33px" width="277px" fill="#323232" font-weight="700" align="middle" lineHeight="125%" anchor="middle" family="微软雅黑" size="33px" weight="700" font-style="" opacity="1" y="2.875" transform="rotate(0)"><tspan id="SvgjsTspan1094" dy="41" x="138.5"><tspan id="SvgjsTspan1095" style="text-decoration:;">Cost</tspan></tspan></text></g></g><g id="SvgjsG1096" transform="translate(427,170.76666259765625)"><path id="SvgjsPath1097" d="M 0 0L 277 0L 277 63L 0 63Z" stroke="none" fill="none"></path><g id="SvgjsG1098"><text id="SvgjsText1099" font-family="微软雅黑" text-anchor="middle" font-size="33px" width="277px" fill="#323232" font-weight="700" align="middle" lineHeight="125%" anchor="middle" family="微软雅黑" size="33px" weight="700" font-style="" opacity="1" y="2.875" transform="rotate(0)"><tspan id="SvgjsTspan1100" dy="41" x="138.5"><tspan id="SvgjsTspan1101" style="text-decoration:;">Availability</tspan></tspan></text></g></g><g id="SvgjsG1102" transform="translate(325,287.76666259765625)"><path id="SvgjsPath1103" d="M 0 0L 120 0L 120 40L 0 40Z" stroke="none" fill="none"></path><g id="SvgjsG1104"><text id="SvgjsText1105" font-family="微软雅黑" text-anchor="middle" font-size="21px" width="120px" fill="#6d6875" font-weight="400" align="middle" lineHeight="125%" anchor="middle" family="微软雅黑" size="21px" weight="400" font-style="" opacity="1" y="1.375" transform="rotate(0)"><tspan id="SvgjsTspan1106" dy="26" x="60"><tspan id="SvgjsTspan1107" style="text-decoration:;font-weight: bold;">RAID 5</tspan></tspan></text></g></g><g id="SvgjsG1108" transform="translate(436,311.76666259765625)"><path id="SvgjsPath1109" d="M 0 0L 120 0L 120 40L 0 40Z" stroke="none" fill="none"></path><g id="SvgjsG1110"><text id="SvgjsText1111" font-family="微软雅黑" text-anchor="middle" font-size="21px" width="120px" fill="#6d6875" font-weight="400" align="middle" lineHeight="125%" anchor="middle" family="微软雅黑" size="21px" weight="400" font-style="" opacity="1" y="1.375" transform="rotate(0)"><tspan id="SvgjsTspan1112" dy="26" x="60"><tspan id="SvgjsTspan1113" style="text-decoration:;font-weight: bold;">RAID 1</tspan></tspan></text></g></g><g id="SvgjsG1114" transform="translate(265,357.76666259765625)"><path id="SvgjsPath1115" d="M 0 0L 120 0L 120 40L 0 40Z" stroke="none" fill="none"></path><g id="SvgjsG1116"><text id="SvgjsText1117" font-family="微软雅黑" text-anchor="middle" font-size="21px" width="120px" fill="#6d6875" font-weight="400" align="middle" lineHeight="125%" anchor="middle" family="微软雅黑" size="21px" weight="400" font-style="" opacity="1" y="1.375" transform="rotate(0)"><tspan id="SvgjsTspan1118" dy="26" x="60"><tspan id="SvgjsTspan1119" style="text-decoration:;font-weight: bold;">RAID 0</tspan></tspan></text></g></g><g id="SvgjsG1120" transform="translate(304.5,193.76666259765625)"><path id="SvgjsPath1121" d="M 0 0L 120 0L 120 40L 0 40Z" stroke="none" fill="none"></path><g id="SvgjsG1122"><text id="SvgjsText1123" font-family="微软雅黑" text-anchor="middle" font-size="21px" width="120px" fill="#6d6875" font-weight="400" align="middle" lineHeight="125%" anchor="middle" family="微软雅黑" size="21px" weight="400" font-style="" opacity="1" y="1.375" transform="rotate(0)"><tspan id="SvgjsTspan1124" dy="26" x="60"><tspan id="SvgjsTspan1125" style="text-decoration:;font-weight: bold;">RAID 6</tspan></tspan></text></g></g></svg>