<svg id="SvgjsSvg1126" width="729" height="660" xmlns="http://www.w3.org/2000/svg" version="1.1" xmlns:xlink="http://www.w3.org/1999/xlink" xmlns:svgjs="http://svgjs.com/svgjs"><defs id="SvgjsDefs1127"></defs><g id="SvgjsG1128" transform="translate(73,90)"><path id="SvgjsPath1129" d="M 0 180.5C 0 -60.166666666666664 361 -60.166666666666664 361 180.5C 361 421.1666666666667 0 421.1666666666667 0 180.5Z" stroke="rgba(228,88,88,1)" stroke-width="4" fill="none"></path><g id="SvgjsG1130"><text id="SvgjsText1131" font-family="微软雅黑" text-anchor="middle" font-size="13px" width="341px" fill="#323232" font-weight="400" align="middle" lineHeight="125%" anchor="middle" family="微软雅黑" size="13px" weight="400" font-style="" opacity="1" y="169.875" transform="rotate(0)"></text></g></g><g id="SvgjsG1132" transform="translate(252,274)"><path id="SvgjsPath1133" d="M 0 180.5C 0 -60.166666666666664 361 -60.166666666666664 361 180.5C 361 421.1666666666667 0 421.1666666666667 0 180.5Z" stroke="rgba(2,195,153,1)" stroke-width="4" fill="none"></path><g id="SvgjsG1134"><text id="SvgjsText1135" font-family="微软雅黑" text-anchor="middle" font-size="39px" width="341px" fill="#323232" font-weight="400" align="middle" lineHeight="125%" anchor="middle" family="微软雅黑" size="39px" weight="400" font-style="" opacity="1" y="147.125" transform="rotate(0)"></text></g></g><g id="SvgjsG1136" transform="translate(305,25)"><path id="SvgjsPath1137" d="M 0 180.5C 0 -60.166666666666664 361 -60.166666666666664 361 180.5C 361 421.1666666666667 0 421.1666666666667 0 180.5Z" stroke="rgba(255,199,115,1)" stroke-width="4" fill="none"></path><g id="SvgjsG1138"><text id="SvgjsText1139" font-family="微软雅黑" text-anchor="middle" font-size="13px" width="341px" fill="#323232" font-weight="400" align="middle" lineHeight="125%" anchor="middle" family="微软雅黑" size="13px" weight="400" font-style="" opacity="1" y="169.875" transform="rotate(0)"></text></g></g><g id="SvgjsG1140" transform="translate(103,247.76666259765625)"><path id="SvgjsPath1141" d="M 0 0L 120 0L 120 40L 0 40Z" stroke="none" fill="none"></path><g id="SvgjsG1142"><text id="SvgjsText1143" font-family="微软雅黑" text-anchor="middle" font-size="23px" width="120px" fill="#323232" font-weight="400" align="middle" lineHeight="125%" anchor="middle" family="微软雅黑" size="23px" weight="400" font-style="" opacity="1" y="-0.375" transform="rotate(0)"></text></g></g><g id="SvgjsG1144" transform="translate(293,482.76666259765625)"><path id="SvgjsPath1145" d="M 0 0L 277 0L 277 63L 0 63Z" stroke="none" fill="none"></path><g id="SvgjsG1146"><text id="SvgjsText1147" font-family="微软雅黑" text-anchor="middle" font-size="33px" width="277px" fill="#323232" font-weight="400" align="middle" lineHeight="125%" anchor="middle" family="微软雅黑" size="33px" weight="400" font-style="" opacity="1" y="2.875" transform="rotate(0)"><tspan id="SvgjsTspan1148" dy="41" x="138.5"><tspan id="SvgjsTspan1149" style="text-decoration:;font-weight: bold;">Performance</tspan></tspan></text></g></g><g id="SvgjsG1150" transform="translate(25,233.76666259765625)"><path id="SvgjsPath1151" d="M 0 0L 277 0L 277 63L 0 63Z" stroke="none" fill="none"></path><g id="SvgjsG1152"><text id="SvgjsText1153" font-family="微软雅黑" text-anchor="middle" font-size="33px" width="277px" fill="#323232" font-weight="700" align="middle" lineHeight="125%" anchor="middle" family="微软雅黑" size="33px" weight="700" font-style="" opacity="1" y="2.875" transform="rotate(0)"><tspan id="SvgjsTspan1154" dy="41" x="138.5"><tspan id="SvgjsTspan1155" style="text-decoration:;">Cost</tspan></tspan></text></g></g><g id="SvgjsG1156" transform="translate(427,170.76666259765625)"><path id="SvgjsPath1157" d="M 0 0L 277 0L 277 63L 0 63Z" stroke="none" fill="none"></path><g id="SvgjsG1158"><text id="SvgjsText1159" font-family="微软雅黑" text-anchor="middle" font-size="33px" width="277px" fill="#323232" font-weight="700" align="middle" lineHeight="125%" anchor="middle" family="微软雅黑" size="33px" weight="700" font-style="" opacity="1" y="2.875" transform="rotate(0)"><tspan id="SvgjsTspan1160" dy="41" x="138.5"><tspan id="SvgjsTspan1161" style="text-decoration:;">Availability</tspan></tspan></text></g></g><g id="SvgjsG1162" transform="translate(325,287.76666259765625)"><path id="SvgjsPath1163" d="M 0 0L 120 0L 120 40L 0 40Z" stroke="none" fill="none"></path><g id="SvgjsG1164"><text id="SvgjsText1165" font-family="微软雅黑" text-anchor="middle" font-size="21px" width="120px" fill="#6d6875" font-weight="400" align="middle" lineHeight="125%" anchor="middle" family="微软雅黑" size="21px" weight="400" font-style="" opacity="1" y="1.375" transform="rotate(0)"><tspan id="SvgjsTspan1166" dy="26" x="60"><tspan id="SvgjsTspan1167" style="text-decoration:;font-weight: bold;">RAID 5</tspan></tspan></text></g></g><g id="SvgjsG1168" transform="translate(500,238.76666259765625)"><path id="SvgjsPath1169" d="M 0 0L 120 0L 120 40L 0 40Z" stroke="none" fill="none"></path><g id="SvgjsG1170"><text id="SvgjsText1171" font-family="微软雅黑" text-anchor="middle" font-size="21px" width="120px" fill="#6d6875" font-weight="400" align="middle" lineHeight="125%" anchor="middle" family="微软雅黑" size="21px" weight="400" font-style="" opacity="1" y="1.375" transform="rotate(0)"><tspan id="SvgjsTspan1172" dy="26" x="60"><tspan id="SvgjsTspan1173" style="text-decoration:;font-weight: bold;">RAID 1</tspan></tspan></text></g></g><g id="SvgjsG1174" transform="translate(265,357.76666259765625)"><path id="SvgjsPath1175" d="M 0 0L 120 0L 120 40L 0 40Z" stroke="none" fill="none"></path><g id="SvgjsG1176"><text id="SvgjsText1177" font-family="微软雅黑" text-anchor="middle" font-size="21px" width="120px" fill="#6d6875" font-weight="400" align="middle" lineHeight="125%" anchor="middle" family="微软雅黑" size="21px" weight="400" font-style="" opacity="1" y="1.375" transform="rotate(0)"><tspan id="SvgjsTspan1178" dy="26" x="60"><tspan id="SvgjsTspan1179" style="text-decoration:;font-weight: bold;">RAID 0</tspan></tspan></text></g></g><g id="SvgjsG1180" transform="translate(304.5,193.76666259765625)"><path id="SvgjsPath1181" d="M 0 0L 120 0L 120 40L 0 40Z" stroke="none" fill="none"></path><g id="SvgjsG1182"><text id="SvgjsText1183" font-family="微软雅黑" text-anchor="middle" font-size="21px" width="120px" fill="#6d6875" font-weight="400" align="middle" lineHeight="125%" anchor="middle" family="微软雅黑" size="21px" weight="400" font-style="" opacity="1" y="1.375" transform="rotate(0)"><tspan id="SvgjsTspan1184" dy="26" x="60"><tspan id="SvgjsTspan1185" style="text-decoration:;font-weight: bold;">RAID 6</tspan></tspan></text></g></g><g id="SvgjsG1186" transform="translate(435,311.76666259765625)"><path id="SvgjsPath1187" d="M 0 0L 120 0L 120 40L 0 40Z" stroke="none" fill="none"></path><g id="SvgjsG1188"><text id="SvgjsText1189" font-family="微软雅黑" text-anchor="middle" font-size="21px" width="120px" fill="#6d6875" font-weight="400" align="middle" lineHeight="125%" anchor="middle" family="微软雅黑" size="21px" weight="400" font-style="" opacity="1" y="1.375" transform="rotate(0)"><tspan id="SvgjsTspan1190" dy="26" x="60"><tspan id="SvgjsTspan1191" style="text-decoration:;font-weight: bold;">RAID 10</tspan></tspan></text></g></g></svg>