<svg id="SvgjsSvg1117" width="1626.0333251953125" height="412.6500244140625" xmlns="http://www.w3.org/2000/svg" version="1.1" xmlns:xlink="http://www.w3.org/1999/xlink" xmlns:svgjs="http://svgjs.com/svgjs"><defs id="SvgjsDefs1118"></defs><g id="SvgjsG1119" transform="translate(162.55001831054688,159.1283062964975)"><path id="SvgjsPath1120" d="M 0 4Q 0 0 4 0L 60.80000305175781 0Q 64.80000305175781 0 64.80000305175781 4L 64.80000305175781 112.68836698231121Q 64.80000305175781 116.68836698231121 60.80000305175781 116.68836698231121L 4 116.68836698231121Q 0 116.68836698231121 0 112.68836698231121Z" stroke="rgba(0,0,0,1)" stroke-width="3" fill-opacity="1" fill="#ff686b"></path><g id="SvgjsG1121"><text id="SvgjsText1122" font-family="微软雅黑" text-anchor="middle" font-size="16px" width="45px" fill="#ffffff" font-weight="700" align="middle" lineHeight="125%" anchor="middle" family="微软雅黑" size="16px" weight="700" font-style="" opacity="1" y="34.344183491155604" transform="rotate(0)"><tspan id="SvgjsTspan1123" dy="20" x="32.5"><tspan id="SvgjsTspan1124" style="text-decoration:;">引导</tspan></tspan><tspan id="SvgjsTspan1125" dy="20" x="32.5"><tspan id="SvgjsTspan1126" style="text-decoration:;">代码</tspan></tspan></text></g></g><g id="SvgjsG1127" transform="translate(362.6499786376953,24.998362110540313)"><path id="SvgjsPath1128" d="M 0 4Q 0 0 4 0L 522.0166931152344 0Q 526.0166931152344 0 526.0166931152344 4L 526.0166931152344 115.29166412353516Q 526.0166931152344 119.29166412353516 522.0166931152344 119.29166412353516L 4 119.29166412353516Q 0 119.29166412353516 0 115.29166412353516Z" stroke="rgba(0,0,0,1)" stroke-width="3" fill-opacity="1" fill="#ffb84d"></path><g id="SvgjsG1129"><text id="SvgjsText1130" font-family="微软雅黑" text-anchor="middle" font-size="16px" width="507px" fill="#ffffff" font-weight="700" align="middle" lineHeight="125%" anchor="middle" family="微软雅黑" size="16px" weight="700" font-style="" opacity="1" y="45.64583206176758" transform="rotate(0)"><tspan id="SvgjsTspan1131" dy="20" x="263.5"><tspan id="SvgjsTspan1132" style="text-decoration:;">分区1 (XFS Linux)</tspan></tspan></text></g></g><g id="SvgjsG1133" transform="translate(162.55001831054688,26.300010681152344)"><path id="SvgjsPath1134" d="M 0 4Q 0 0 4 0L 60.80000305175781 0Q 64.80000305175781 0 64.80000305175781 4L 64.80000305175781 112.6883669823111Q 64.80000305175781 116.6883669823111 60.80000305175781 116.6883669823111L 4 116.6883669823111Q 0 116.6883669823111 0 112.6883669823111Z" stroke="rgba(0,0,0,1)" stroke-width="3" fill-opacity="1" fill="#ff686b"></path><g id="SvgjsG1135"><text id="SvgjsText1136" font-family="微软雅黑" text-anchor="middle" font-size="16px" width="45px" fill="#ffffff" font-weight="700" align="middle" lineHeight="125%" anchor="middle" family="微软雅黑" size="16px" weight="700" font-style="" opacity="1" y="34.34418349115555" transform="rotate(0)"><tspan id="SvgjsTspan1137" dy="20" x="32.5"><tspan id="SvgjsTspan1138" style="text-decoration:;">引导</tspan></tspan><tspan id="SvgjsTspan1139" dy="20" x="32.5"><tspan id="SvgjsTspan1140" style="text-decoration:;">代码</tspan></tspan></text></g></g><g id="SvgjsG1141" transform="translate(247.7166748046875,26.300010681152344)"><path id="SvgjsPath1142" d="M 0 4Q 0 0 4 0L 90.566650390625 0Q 94.566650390625 0 94.566650390625 4L 94.566650390625 112.68836698231112Q 94.566650390625 116.68836698231112 90.566650390625 116.68836698231112L 4 116.68836698231112Q 0 116.68836698231112 0 112.68836698231112Z" stroke="rgba(0,0,0,1)" stroke-width="3" fill-opacity="1" fill="#6d6875"></path><g id="SvgjsG1143"><text id="SvgjsText1144" font-family="微软雅黑" text-anchor="middle" font-size="15px" width="75px" fill="#ffffff" font-weight="700" align="middle" lineHeight="125%" anchor="middle" family="微软雅黑" size="15px" weight="700" font-style="" opacity="1" y="27.46918349115556" transform="rotate(0)"><tspan id="SvgjsTspan1145" dy="18" x="47.5"><tspan id="SvgjsTspan1146" style="text-decoration:;">MBR</tspan></tspan><tspan id="SvgjsTspan1147" dy="18" x="47.5"><tspan id="SvgjsTspan1148" style="text-decoration:;">分区信息</tspan></tspan><tspan id="SvgjsTspan1149" dy="18" x="47.5"><tspan id="SvgjsTspan1150" style="text-decoration:;">【4 分区】</tspan></tspan></text></g></g><g id="SvgjsG1151" transform="translate(362.6499786376953,157.82665772588552)"><path id="SvgjsPath1152" d="M 0 4Q 0 0 4 0L 187.6333465576172 0Q 191.6333465576172 0 191.6333465576172 4L 191.6333465576172 115.29166412353516Q 191.6333465576172 119.29166412353516 187.6333465576172 119.29166412353516L 4 119.29166412353516Q 0 119.29166412353516 0 115.29166412353516Z" stroke="rgba(0,0,0,1)" stroke-width="3" fill-opacity="1" fill="#6d6875"></path><g id="SvgjsG1153"><text id="SvgjsText1154" font-family="微软雅黑" text-anchor="middle" font-size="15px" width="172px" fill="#ffffff" font-weight="700" align="middle" lineHeight="125%" anchor="middle" family="微软雅黑" size="15px" weight="700" font-style="" opacity="1" y="37.77083206176758" transform="rotate(0)"><tspan id="SvgjsTspan1155" dy="18" x="96"><tspan id="SvgjsTspan1156" style="text-decoration:;">GPT 分区信息</tspan></tspan><tspan id="SvgjsTspan1157" dy="18" x="96"><tspan id="SvgjsTspan1158" style="text-decoration:;">【可容纳128 分区】</tspan></tspan></text></g></g><g id="SvgjsG1159" transform="translate(247.7166748046875,159.1283062964975)"><path id="SvgjsPath1160" d="M 0 4Q 0 0 4 0L 90.566650390625 0Q 94.566650390625 0 94.566650390625 4L 94.566650390625 112.68836698231112Q 94.566650390625 116.68836698231112 90.566650390625 116.68836698231112L 4 116.68836698231112Q 0 116.68836698231112 0 112.68836698231112Z" stroke="rgba(0,0,0,1)" stroke-width="3" fill-opacity="1" fill="#6d6875"></path><g id="SvgjsG1161"><text id="SvgjsText1162" font-family="微软雅黑" text-anchor="middle" font-size="15px" width="75px" fill="#ffffff" font-weight="700" align="middle" lineHeight="125%" anchor="middle" family="微软雅黑" size="15px" weight="700" font-style="" opacity="1" y="27.46918349115556" transform="rotate(0)"><tspan id="SvgjsTspan1163" dy="18" x="47.5"><tspan id="SvgjsTspan1164" style="text-decoration:;">MBR</tspan></tspan><tspan id="SvgjsTspan1165" dy="18" x="47.5"><tspan id="SvgjsTspan1166" style="text-decoration:;">分区信息</tspan></tspan><tspan id="SvgjsTspan1167" dy="18" x="47.5"><tspan id="SvgjsTspan1168" style="text-decoration:;">【废弃】</tspan></tspan></text></g></g><g id="SvgjsG1169" transform="translate(909.0333251953125,24.998362110540313)"><path id="SvgjsPath1170" d="M 0 4Q 0 0 4 0L 687.5 0Q 691.5 0 691.5 4L 691.5 115.29166412353516Q 691.5 119.29166412353516 687.5 119.29166412353516L 4 119.29166412353516Q 0 119.29166412353516 0 115.29166412353516Z" stroke="rgba(0,0,0,1)" stroke-width="3" fill-opacity="1" fill="#ffb84d"></path><g id="SvgjsG1171"><text id="SvgjsText1172" font-family="微软雅黑" text-anchor="middle" font-size="16px" width="672px" fill="#ffffff" font-weight="700" align="middle" lineHeight="125%" anchor="middle" family="微软雅黑" size="16px" weight="700" font-style="" opacity="1" y="45.64583206176758" transform="rotate(0)"><tspan id="SvgjsTspan1173" dy="20" x="346"><tspan id="SvgjsTspan1174" style="text-decoration:;">分区2 (NTFS Windows)</tspan></tspan></text></g></g><g id="SvgjsG1175" transform="translate(574.6499786376953,157.82665772588552)"><path id="SvgjsPath1176" d="M 0 4Q 0 0 4 0L 310.0166931152344 0Q 314.0166931152344 0 314.0166931152344 4L 314.0166931152344 115.29166412353516Q 314.0166931152344 119.29166412353516 310.0166931152344 119.29166412353516L 4 119.29166412353516Q 0 119.29166412353516 0 115.29166412353516Z" stroke="rgba(0,0,0,1)" stroke-width="3" fill-opacity="1" fill="#ffb84d"></path><g id="SvgjsG1177"><text id="SvgjsText1178" font-family="微软雅黑" text-anchor="middle" font-size="16px" width="295px" fill="#ffffff" font-weight="700" align="middle" lineHeight="125%" anchor="middle" family="微软雅黑" size="16px" weight="700" font-style="" opacity="1" y="45.64583206176758" transform="rotate(0)"><tspan id="SvgjsTspan1179" dy="20" x="157.5"><tspan id="SvgjsTspan1180" style="text-decoration:;">分区1 (XFS Linux)</tspan></tspan></text></g></g><g id="SvgjsG1181" transform="translate(909.0333251953125,159.1283062964975)"><path id="SvgjsPath1182" d="M 0 4Q 0 0 4 0L 602.25 0Q 606.25 0 606.25 4L 606.25 112.68836698231121Q 606.25 116.68836698231121 602.25 116.68836698231121L 4 116.68836698231121Q 0 116.68836698231121 0 112.68836698231121Z" stroke="rgba(0,0,0,1)" stroke-width="3" fill-opacity="1" fill="#ffb84d"></path><g id="SvgjsG1183"><text id="SvgjsText1184" font-family="微软雅黑" text-anchor="middle" font-size="16px" width="587px" fill="#ffffff" font-weight="700" align="middle" lineHeight="125%" anchor="middle" family="微软雅黑" size="16px" weight="700" font-style="" opacity="1" y="44.344183491155604" transform="rotate(0)"><tspan id="SvgjsTspan1185" dy="20" x="303.5"><tspan id="SvgjsTspan1186" style="text-decoration:;">分区2 (NTFS Windows)</tspan></tspan></text></g></g><g id="SvgjsG1187" transform="translate(1535.6499786376953,159.1283062964975)"><path id="SvgjsPath1188" d="M 0 4Q 0 0 4 0L 60.88334655761719 0Q 64.88334655761719 0 64.88334655761719 4L 64.88334655761719 112.68836698231121Q 64.88334655761719 116.68836698231121 60.88334655761719 116.68836698231121L 4 116.68836698231121Q 0 116.68836698231121 0 112.68836698231121Z" stroke="rgba(0,0,0,1)" stroke-width="3" fill-opacity="1" fill="#6d6875"></path><g id="SvgjsG1189"><text id="SvgjsText1190" font-family="微软雅黑" text-anchor="middle" font-size="14px" width="45px" fill="#ffffff" font-weight="700" align="middle" lineHeight="125%" anchor="middle" family="微软雅黑" size="14px" weight="700" font-style="" opacity="1" y="29.094183491155604" transform="rotate(0)"><tspan id="SvgjsTspan1191" dy="17" x="32.5"><tspan id="SvgjsTspan1192" style="text-decoration:;">GPT</tspan></tspan><tspan id="SvgjsTspan1193" dy="17" x="32.5"><tspan id="SvgjsTspan1194" style="text-decoration:;">元信息</tspan></tspan><tspan id="SvgjsTspan1195" dy="17" x="32.5"><tspan id="SvgjsTspan1196" style="text-decoration:;">备份</tspan></tspan></text></g></g><g id="SvgjsG1197" transform="matrix(6.123234262925839e-17,1,-1,6.123234262925839e-17,336.816650390625,290.6500244140625)"><path id="SvgjsPath1198" d="M 0 174.81666564941406Q 9 174.81666564941406 9 165.81666564941406L 9 96.40833282470703Q 9 87.40833282470703 22 87.40833282470703Q 9 87.40833282470703 9 78.40833282470703L 9 9Q 9 0 0 0" stroke="rgba(50,50,50,1)" stroke-width="2" fill="none"></path><path id="SvgjsPath1199" d="M 0 0L 96.59999084472656 0L 96.59999084472656 174.81666564941406L 0 174.81666564941406Z" stroke="none" fill="none"></path><g id="SvgjsG1200"><text id="SvgjsText1201" font-family="微软雅黑" text-anchor="start" font-size="13px" width="70px" fill="#323232" font-weight="400" align="middle" lineHeight="125%" anchor="start" family="微软雅黑" size="13px" weight="400" font-style="" opacity="1" y="76.78333282470703" transform="rotate(0)"><tspan id="SvgjsTspan1202" dy="16" x="27"><tspan id="SvgjsTspan1203" style="text-decoration:;"> </tspan></tspan></text></g></g><g id="SvgjsG1204" transform="translate(191.81666564941406,318.6604251861572)"><path id="SvgjsPath1205" d="M 0 0L 120 0L 120 40L 0 40Z" stroke="none" fill="none"></path><g id="SvgjsG1206"><text id="SvgjsText1207" font-family="微软雅黑" text-anchor="middle" font-size="13px" width="120px" fill="#323232" font-weight="400" align="middle" lineHeight="125%" anchor="middle" family="微软雅黑" size="13px" weight="400" font-style="" opacity="1" y="9.375" transform="rotate(0)"><tspan id="SvgjsTspan1208" dy="16" x="60"><tspan id="SvgjsTspan1209" style="text-decoration:;font-weight: bold;">Protective MBR</tspan></tspan></text></g></g><g id="SvgjsG1210" transform="translate(25,191.33373468147965)"><path id="SvgjsPath1211" d="M 0 0L 137 0L 137 52.2775102123469L 0 52.2775102123469Z" stroke="none" fill="none"></path><g id="SvgjsG1212"><text id="SvgjsText1213" font-family="微软雅黑" text-anchor="middle" font-size="32px" width="137px" fill="#323232" font-weight="700" align="middle" lineHeight="125%" anchor="middle" family="微软雅黑" size="32px" weight="700" font-style="" opacity="1" y="-1.8612448938265516" transform="rotate(0)"><tspan id="SvgjsTspan1214" dy="40" x="68.5"><tspan id="SvgjsTspan1215" style="text-decoration:;">GPT</tspan></tspan></text></g></g><g id="SvgjsG1216" transform="translate(25.550018310546875,62.552918172635145)"><path id="SvgjsPath1217" d="M 0 0L 137 0L 137 52.2775102123469L 0 52.2775102123469Z" stroke="none" fill="none"></path><g id="SvgjsG1218"><text id="SvgjsText1219" font-family="微软雅黑" text-anchor="middle" font-size="32px" width="137px" fill="#323232" font-weight="700" align="middle" lineHeight="125%" anchor="middle" family="微软雅黑" size="32px" weight="700" font-style="" opacity="1" y="-1.8612448938265516" transform="rotate(0)"><tspan id="SvgjsTspan1220" dy="40" x="68.5"><tspan id="SvgjsTspan1221" style="text-decoration:;">MBR</tspan></tspan></text></g></g></svg>