<svg id="SvgjsSvg1006" width="1626.0333251953125" height="412.6500244140625" xmlns="http://www.w3.org/2000/svg" version="1.1" xmlns:xlink="http://www.w3.org/1999/xlink" xmlns:svgjs="http://svgjs.com/svgjs"><defs id="SvgjsDefs1007"></defs><g id="SvgjsG1008" transform="translate(162.55001831054688,159.1283062964975)"><path id="SvgjsPath1009" d="M 0 4Q 0 0 4 0L 60.80000305175781 0Q 64.80000305175781 0 64.80000305175781 4L 64.80000305175781 112.68836698231121Q 64.80000305175781 116.68836698231121 60.80000305175781 116.68836698231121L 4 116.68836698231121Q 0 116.68836698231121 0 112.68836698231121Z" stroke="rgba(0,0,0,1)" stroke-width="3" fill-opacity="1" fill="#ff686b"></path><g id="SvgjsG1010"><text id="SvgjsText1011" font-family="微软雅黑" text-anchor="middle" font-size="16px" width="45px" fill="#ffffff" font-weight="700" align="middle" lineHeight="125%" anchor="middle" family="微软雅黑" size="16px" weight="700" font-style="" opacity="1" y="34.344183491155604" transform="rotate(0)"><tspan id="SvgjsTspan1012" dy="20" x="32.5"><tspan id="SvgjsTspan1013" style="text-decoration:;">引导</tspan></tspan><tspan id="SvgjsTspan1014" dy="20" x="32.5"><tspan id="SvgjsTspan1015" style="text-decoration:;">代码</tspan></tspan></text></g></g><g id="SvgjsG1016" transform="translate(362.6499786376953,24.998362110540313)"><path id="SvgjsPath1017" d="M 0 4Q 0 0 4 0L 522.0166931152344 0Q 526.0166931152344 0 526.0166931152344 4L 526.0166931152344 115.29166412353516Q 526.0166931152344 119.29166412353516 522.0166931152344 119.29166412353516L 4 119.29166412353516Q 0 119.29166412353516 0 115.29166412353516Z" stroke="rgba(0,0,0,1)" stroke-width="3" fill-opacity="1" fill="#ffb84d"></path><g id="SvgjsG1018"><text id="SvgjsText1019" font-family="微软雅黑" text-anchor="middle" font-size="16px" width="507px" fill="#ffffff" font-weight="700" align="middle" lineHeight="125%" anchor="middle" family="微软雅黑" size="16px" weight="700" font-style="" opacity="1" y="45.64583206176758" transform="rotate(0)"><tspan id="SvgjsTspan1020" dy="20" x="263.5"><tspan id="SvgjsTspan1021" style="text-decoration:;">分区1 (XFS Linux)</tspan></tspan></text></g></g><g id="SvgjsG1022" transform="translate(162.55001831054688,26.300010681152344)"><path id="SvgjsPath1023" d="M 0 4Q 0 0 4 0L 60.80000305175781 0Q 64.80000305175781 0 64.80000305175781 4L 64.80000305175781 112.6883669823111Q 64.80000305175781 116.6883669823111 60.80000305175781 116.6883669823111L 4 116.6883669823111Q 0 116.6883669823111 0 112.6883669823111Z" stroke="rgba(0,0,0,1)" stroke-width="3" fill-opacity="1" fill="#ff686b"></path><g id="SvgjsG1024"><text id="SvgjsText1025" font-family="微软雅黑" text-anchor="middle" font-size="16px" width="45px" fill="#ffffff" font-weight="700" align="middle" lineHeight="125%" anchor="middle" family="微软雅黑" size="16px" weight="700" font-style="" opacity="1" y="34.34418349115555" transform="rotate(0)"><tspan id="SvgjsTspan1026" dy="20" x="32.5"><tspan id="SvgjsTspan1027" style="text-decoration:;">引导</tspan></tspan><tspan id="SvgjsTspan1028" dy="20" x="32.5"><tspan id="SvgjsTspan1029" style="text-decoration:;">代码</tspan></tspan></text></g></g><g id="SvgjsG1030" transform="translate(247.7166748046875,26.300010681152344)"><path id="SvgjsPath1031" d="M 0 4Q 0 0 4 0L 90.566650390625 0Q 94.566650390625 0 94.566650390625 4L 94.566650390625 112.68836698231112Q 94.566650390625 116.68836698231112 90.566650390625 116.68836698231112L 4 116.68836698231112Q 0 116.68836698231112 0 112.68836698231112Z" stroke="rgba(0,0,0,1)" stroke-width="3" fill-opacity="1" fill="#6d6875"></path><g id="SvgjsG1032"><text id="SvgjsText1033" font-family="微软雅黑" text-anchor="middle" font-size="15px" width="75px" fill="#ffffff" font-weight="700" align="middle" lineHeight="125%" anchor="middle" family="微软雅黑" size="15px" weight="700" font-style="" opacity="1" y="27.46918349115556" transform="rotate(0)"><tspan id="SvgjsTspan1034" dy="18" x="47.5"><tspan id="SvgjsTspan1035" style="text-decoration:;">MBR</tspan></tspan><tspan id="SvgjsTspan1036" dy="18" x="47.5"><tspan id="SvgjsTspan1037" style="text-decoration:;">分区信息</tspan></tspan><tspan id="SvgjsTspan1038" dy="18" x="47.5"><tspan id="SvgjsTspan1039" style="text-decoration:;">【4 分区】</tspan></tspan></text></g></g><g id="SvgjsG1040" transform="translate(362.6499786376953,157.82665772588552)"><path id="SvgjsPath1041" d="M 0 4Q 0 0 4 0L 187.6333465576172 0Q 191.6333465576172 0 191.6333465576172 4L 191.6333465576172 115.29166412353516Q 191.6333465576172 119.29166412353516 187.6333465576172 119.29166412353516L 4 119.29166412353516Q 0 119.29166412353516 0 115.29166412353516Z" stroke="rgba(0,0,0,1)" stroke-width="3" fill-opacity="1" fill="#6d6875"></path><g id="SvgjsG1042"><text id="SvgjsText1043" font-family="微软雅黑" text-anchor="middle" font-size="15px" width="172px" fill="#ffffff" font-weight="700" align="middle" lineHeight="125%" anchor="middle" family="微软雅黑" size="15px" weight="700" font-style="" opacity="1" y="37.77083206176758" transform="rotate(0)"><tspan id="SvgjsTspan1044" dy="18" x="96"><tspan id="SvgjsTspan1045" style="text-decoration:;">GPT 分区信息</tspan></tspan><tspan id="SvgjsTspan1046" dy="18" x="96"><tspan id="SvgjsTspan1047" style="text-decoration:;">【可容纳128 分区】</tspan></tspan></text></g></g><g id="SvgjsG1048" transform="translate(247.7166748046875,159.1283062964975)"><path id="SvgjsPath1049" d="M 0 4Q 0 0 4 0L 90.566650390625 0Q 94.566650390625 0 94.566650390625 4L 94.566650390625 112.68836698231112Q 94.566650390625 116.68836698231112 90.566650390625 116.68836698231112L 4 116.68836698231112Q 0 116.68836698231112 0 112.68836698231112Z" stroke="rgba(0,0,0,1)" stroke-width="3" fill-opacity="1" fill="#6d6875"></path><g id="SvgjsG1050"><text id="SvgjsText1051" font-family="微软雅黑" text-anchor="middle" font-size="15px" width="75px" fill="#ffffff" font-weight="700" align="middle" lineHeight="125%" anchor="middle" family="微软雅黑" size="15px" weight="700" font-style="" opacity="1" y="27.46918349115556" transform="rotate(0)"><tspan id="SvgjsTspan1052" dy="18" x="47.5"><tspan id="SvgjsTspan1053" style="text-decoration:;">MBR</tspan></tspan><tspan id="SvgjsTspan1054" dy="18" x="47.5"><tspan id="SvgjsTspan1055" style="text-decoration:;">分区信息</tspan></tspan><tspan id="SvgjsTspan1056" dy="18" x="47.5"><tspan id="SvgjsTspan1057" style="text-decoration:;">【废弃】</tspan></tspan></text></g></g><g id="SvgjsG1058" transform="translate(909.0333251953125,24.998362110540313)"><path id="SvgjsPath1059" d="M 0 4Q 0 0 4 0L 687.5 0Q 691.5 0 691.5 4L 691.5 115.29166412353516Q 691.5 119.29166412353516 687.5 119.29166412353516L 4 119.29166412353516Q 0 119.29166412353516 0 115.29166412353516Z" stroke="rgba(0,0,0,1)" stroke-width="3" fill-opacity="1" fill="#ffb84d"></path><g id="SvgjsG1060"><text id="SvgjsText1061" font-family="微软雅黑" text-anchor="middle" font-size="16px" width="672px" fill="#ffffff" font-weight="700" align="middle" lineHeight="125%" anchor="middle" family="微软雅黑" size="16px" weight="700" font-style="" opacity="1" y="45.64583206176758" transform="rotate(0)"><tspan id="SvgjsTspan1062" dy="20" x="346"><tspan id="SvgjsTspan1063" style="text-decoration:;">分区2 (NTFS Windows)</tspan></tspan></text></g></g><g id="SvgjsG1064" transform="translate(574.6499786376953,157.82665772588552)"><path id="SvgjsPath1065" d="M 0 4Q 0 0 4 0L 310.0166931152344 0Q 314.0166931152344 0 314.0166931152344 4L 314.0166931152344 115.29166412353516Q 314.0166931152344 119.29166412353516 310.0166931152344 119.29166412353516L 4 119.29166412353516Q 0 119.29166412353516 0 115.29166412353516Z" stroke="rgba(0,0,0,1)" stroke-width="3" fill-opacity="1" fill="#ffb84d"></path><g id="SvgjsG1066"><text id="SvgjsText1067" font-family="微软雅黑" text-anchor="middle" font-size="16px" width="295px" fill="#ffffff" font-weight="700" align="middle" lineHeight="125%" anchor="middle" family="微软雅黑" size="16px" weight="700" font-style="" opacity="1" y="45.64583206176758" transform="rotate(0)"><tspan id="SvgjsTspan1068" dy="20" x="157.5"><tspan id="SvgjsTspan1069" style="text-decoration:;">分区1 (XFS Linux)</tspan></tspan></text></g></g><g id="SvgjsG1070" transform="translate(909.0333251953125,159.1283062964975)"><path id="SvgjsPath1071" d="M 0 4Q 0 0 4 0L 602.25 0Q 606.25 0 606.25 4L 606.25 112.68836698231121Q 606.25 116.68836698231121 602.25 116.68836698231121L 4 116.68836698231121Q 0 116.68836698231121 0 112.68836698231121Z" stroke="rgba(0,0,0,1)" stroke-width="3" fill-opacity="1" fill="#ffb84d"></path><g id="SvgjsG1072"><text id="SvgjsText1073" font-family="微软雅黑" text-anchor="middle" font-size="16px" width="587px" fill="#ffffff" font-weight="700" align="middle" lineHeight="125%" anchor="middle" family="微软雅黑" size="16px" weight="700" font-style="" opacity="1" y="44.344183491155604" transform="rotate(0)"><tspan id="SvgjsTspan1074" dy="20" x="303.5"><tspan id="SvgjsTspan1075" style="text-decoration:;">分区2 (NTFS Windows)</tspan></tspan></text></g></g><g id="SvgjsG1076" transform="translate(1535.6499786376953,159.1283062964975)"><path id="SvgjsPath1077" d="M 0 4Q 0 0 4 0L 60.88334655761719 0Q 64.88334655761719 0 64.88334655761719 4L 64.88334655761719 112.68836698231121Q 64.88334655761719 116.68836698231121 60.88334655761719 116.68836698231121L 4 116.68836698231121Q 0 116.68836698231121 0 112.68836698231121Z" stroke="rgba(0,0,0,1)" stroke-width="3" fill-opacity="1" fill="#6d6875"></path><g id="SvgjsG1078"><text id="SvgjsText1079" font-family="微软雅黑" text-anchor="middle" font-size="14px" width="45px" fill="#ffffff" font-weight="700" align="middle" lineHeight="125%" anchor="middle" family="微软雅黑" size="14px" weight="700" font-style="" opacity="1" y="29.094183491155604" transform="rotate(0)"><tspan id="SvgjsTspan1080" dy="17" x="32.5"><tspan id="SvgjsTspan1081" style="text-decoration:;">GPT</tspan></tspan><tspan id="SvgjsTspan1082" dy="17" x="32.5"><tspan id="SvgjsTspan1083" style="text-decoration:;">元信息</tspan></tspan><tspan id="SvgjsTspan1084" dy="17" x="32.5"><tspan id="SvgjsTspan1085" style="text-decoration:;">备份</tspan></tspan></text></g></g><g id="SvgjsG1086" transform="matrix(6.123234262925839e-17,1,-1,6.123234262925839e-17,336.816650390625,290.6500244140625)"><path id="SvgjsPath1087" d="M 0 174.81666564941406Q 9 174.81666564941406 9 165.81666564941406L 9 96.40833282470703Q 9 87.40833282470703 22 87.40833282470703Q 9 87.40833282470703 9 78.40833282470703L 9 9Q 9 0 0 0" stroke="rgba(50,50,50,1)" stroke-width="2" fill="none"></path><path id="SvgjsPath1088" d="M 0 0L 96.59999084472656 0L 96.59999084472656 174.81666564941406L 0 174.81666564941406Z" stroke="none" fill="none"></path><g id="SvgjsG1089"><text id="SvgjsText1090" font-family="微软雅黑" text-anchor="start" font-size="13px" width="70px" fill="#323232" font-weight="400" align="middle" lineHeight="125%" anchor="start" family="微软雅黑" size="13px" weight="400" font-style="" opacity="1" y="76.78333282470703" transform="rotate(0)"><tspan id="SvgjsTspan1091" dy="16" x="27"><tspan id="SvgjsTspan1092" style="text-decoration:;"> </tspan></tspan></text></g></g><g id="SvgjsG1093" transform="translate(191.81666564941406,318.6604251861572)"><path id="SvgjsPath1094" d="M 0 0L 120 0L 120 40L 0 40Z" stroke="none" fill="none"></path><g id="SvgjsG1095"><text id="SvgjsText1096" font-family="微软雅黑" text-anchor="middle" font-size="13px" width="120px" fill="#323232" font-weight="400" align="middle" lineHeight="125%" anchor="middle" family="微软雅黑" size="13px" weight="400" font-style="" opacity="1" y="9.375" transform="rotate(0)"><tspan id="SvgjsTspan1097" dy="16" x="60"><tspan id="SvgjsTspan1098" style="text-decoration:;font-weight: bold;">Protective MBR</tspan></tspan></text></g></g><g id="SvgjsG1099" transform="translate(25,191.33373468147965)"><path id="SvgjsPath1100" d="M 0 0L 137 0L 137 52.2775102123469L 0 52.2775102123469Z" stroke="none" fill="none"></path><g id="SvgjsG1101"><text id="SvgjsText1102" font-family="微软雅黑" text-anchor="middle" font-size="32px" width="137px" fill="#323232" font-weight="700" align="middle" lineHeight="125%" anchor="middle" family="微软雅黑" size="32px" weight="700" font-style="" opacity="1" y="-1.8612448938265516" transform="rotate(0)"><tspan id="SvgjsTspan1103" dy="40" x="68.5"><tspan id="SvgjsTspan1104" style="text-decoration:;">GPT</tspan></tspan></text></g></g><g id="SvgjsG1105" transform="translate(25.550018310546875,62.552918172635145)"><path id="SvgjsPath1106" d="M 0 0L 137 0L 137 52.2775102123469L 0 52.2775102123469Z" stroke="none" fill="none"></path><g id="SvgjsG1107"><text id="SvgjsText1108" font-family="微软雅黑" text-anchor="middle" font-size="32px" width="137px" fill="#323232" font-weight="700" align="middle" lineHeight="125%" anchor="middle" family="微软雅黑" size="32px" weight="700" font-style="" opacity="1" y="-1.8612448938265516" transform="rotate(0)"><tspan id="SvgjsTspan1109" dy="40" x="68.5"><tspan id="SvgjsTspan1110" style="text-decoration:;">MBR</tspan></tspan></text></g></g><g id="SvgjsG1111" transform="translate(759,331.26666259765625)"><path id="SvgjsPath1112" d="M 0 0L 238 0L 238 55.98333740234375L 0 55.98333740234375Z" stroke="none" fill="none"></path><g id="SvgjsG1113"><text id="SvgjsText1114" font-family="微软雅黑" text-anchor="middle" font-size="25px" width="238px" fill="#323232" font-weight="700" align="middle" lineHeight="125%" anchor="middle" family="微软雅黑" size="25px" weight="700" font-style="" opacity="1" y="6.366668701171875" transform="rotate(0)"><tspan id="SvgjsTspan1115" dy="31" x="119"><tspan id="SvgjsTspan1116" style="text-decoration:;">磁盘逻辑结构</tspan></tspan></text></g></g></svg>